<?xml version="1.0" encoding="UTF-8"?>
<svg width="5cm" height="5cm" version="1.1" viewBox="0 0 50 50" xmlns="http://www.w3.org/2000/svg" xmlns:cc="http://creativecommons.org/ns#" xmlns:dc="http://purl.org/dc/elements/1.1/" xmlns:rdf="http://www.w3.org/1999/02/22-rdf-syntax-ns#">
<metadata>
<rdf:RDF>
<cc:Work rdf:about="">
<dc:format>image/svg+xml</dc:format>
<dc:type rdf:resource="http://purl.org/dc/dcmitype/StillImage"/>
<dc:title/>
</cc:Work>
</rdf:RDF>
</metadata>
<g transform="translate(0,-247)">
<g transform="translate(-43.656 119.06)" stroke="#000" stroke-width=".05">
<g fill="#e00000" stroke-linejoin="round">
<path d="m67.469 143.54h2.6458z"/>
<path d="m67.469 140.9h2.6458z"/>
<path d="m67.469 146.19h2.6458z"/>
<path d="m72.76 146.19 2.6458 2.6458z"/>
<path d="m75.406 143.54 2.6458 2.6458z"/>
<path d="m78.052 140.9 2.6458 2.6458z"/>
<path d="m70.115 143.54 7.9375-2.6458z"/>
<path d="m70.115 146.19 5.2917-2.6458z"/>
<path d="m72.76 146.19-0.93759-0.87466z"/>
<path d="m70.115 140.9 3.175 1.5875z"/>
</g>
<path d="m75.406 148.83 2.6458 2.6458z" fill="none"/>
<path d="m78.052 146.19 2.6458 5.2917z" fill="none"/>
<path d="m75.406 151.48 0.83965-1.7166z" fill="none"/>
<path d="m80.698 143.54-1.3229 5.2917z" fill="none"/>
</g>
<g transform="rotate(90 -12.568 190.51)" stroke="#000" stroke-width=".05">
<g fill="#e00000" stroke-linejoin="round">
<path d="m67.469 143.54h2.6458z"/>
<path d="m67.469 140.9h2.6458z"/>
<path d="m67.469 146.19h2.6458z"/>
<path d="m72.76 146.19 2.6458 2.6458z"/>
<path d="m75.406 143.54 2.6458 2.6458z"/>
<path d="m78.052 140.9 2.6458 2.6458z"/>
<path d="m70.115 143.54 7.9375-2.6458z"/>
<path d="m70.115 146.19 5.2917-2.6458z"/>
<path d="m72.76 146.19-0.93759-0.87466z"/>
<path d="m70.115 140.9 3.175 1.5875z"/>
</g>
<path d="m75.406 148.83 2.6458 2.6458z" fill="none"/>
<path d="m78.052 146.19 2.6458 5.2917z" fill="none"/>
<path d="m75.406 151.48 0.83965-1.7166z" fill="none"/>
<path d="m80.698 143.54-1.3229 5.2917z" fill="none"/>
</g>
<g transform="rotate(180 46.964 212.33)" stroke="#000" stroke-width=".05">
<g fill="#e00000" stroke-linejoin="round">
<path d="m67.469 143.54h2.6458z"/>
<path d="m67.469 140.9h2.6458z"/>
<path d="m67.469 146.19h2.6458z"/>
<path d="m72.76 146.19 2.6458 2.6458z"/>
<path d="m75.406 143.54 2.6458 2.6458z"/>
<path d="m78.052 140.9 2.6458 2.6458z"/>
<path d="m70.115 143.54 7.9375-2.6458z"/>
<path d="m70.115 146.19 5.2917-2.6458z"/>
<path d="m72.76 146.19-0.93759-0.87466z"/>
<path d="m70.115 140.9 3.175 1.5875z"/>
</g>
<path d="m75.406 148.83 2.6458 2.6458z" fill="none"/>
<path d="m78.052 146.19 2.6458 5.2917z" fill="none"/>
<path d="m75.406 151.48 0.83965-1.7166z" fill="none"/>
<path d="m80.698 143.54-1.3229 5.2917z" fill="none"/>
</g>
<g transform="rotate(-90 106.49 234.16)" stroke="#000" stroke-width=".05">
<g fill="#e00000" stroke-linejoin="round">
<path d="m67.469 143.54h2.6458z"/>
<path d="m67.469 140.9h2.6458z"/>
<path d="m67.469 146.19h2.6458z"/>
<path d="m72.76 146.19 2.6458 2.6458z"/>
<path d="m75.406 143.54 2.6458 2.6458z"/>
<path d="m78.052 140.9 2.6458 2.6458z"/>
<path d="m70.115 143.54 7.9375-2.6458z"/>
<path d="m70.115 146.19 5.2917-2.6458z"/>
<path d="m72.76 146.19-0.93759-0.87466z"/>
<path d="m70.115 140.9 3.175 1.5875z"/>
</g>
<path d="m75.406 148.83 2.6458 2.6458z" fill="none"/>
<path d="m78.052 146.19 2.6458 5.2917z" fill="none"/>
<path d="m75.406 151.48 0.83965-1.7166z" fill="none"/>
<path d="m80.698 143.54-1.3229 5.2917z" fill="none"/>
</g>
<path d="m16.792 267-0.86682-1.7329 1.3236-1.3184 1.3236-1.3184 5.283-2.6367 2.5985 6e-3 3.0665 1.542-3.0689 1.0205h-2.6263l-6.1664 6.1704z" fill="#00f" stroke="#000" stroke-linejoin="round" stroke-width=".05"/>
<path d="m17.19 279.74-1.3229-1.3282-2.5783-5.1662v-2.7438l0.74383-1.489c0.4091-0.81896 0.75758-1.489 0.77438-1.489 0.0168 0 0.26005 0.69017 0.54056 1.5337l0.51001 1.5337v2.6293l3.0648 3.058c1.6857 1.6819 3.0583 3.0638 3.0504 3.0708-0.02241 0.0199-3.427 1.7188-3.4444 1.7188-0.0085 0-0.61079-0.59768-1.3384-1.3282z" fill="#00f" stroke="#000" stroke-linejoin="round" stroke-width=".05"/>
<path d="m22.282 282.97-1.5439-0.77634 3.0295-1.0098h2.6919l6.158-6.1774 1.7371 3.4727-2.6472 2.6367-5.283 2.6366-2.5985-6e-3z" fill="#00f" stroke="#000" stroke-linejoin="round" stroke-width=".05"/>
<path d="m34.933 274.69-0.51001-1.5337v-2.6283l-6.1592-6.145 3.4741-1.7315 2.636 2.6258 2.618 5.2246v2.6869l-0.75918 1.5175c-0.41754 0.83461-0.76601 1.5175-0.77437 1.5175-0.0084 0-0.24471-0.69017-0.52522-1.5337z" fill="#00f" stroke="#000" stroke-linejoin="round" stroke-width=".05"/>
<path d="m16.776 274.02-0.86062-0.86206v-2.6257l-2.6417-7.925 2.6125-2.6081 5.1856 1.299-1.3084 0.65722-1.3084 0.65721-2.6264 2.6365 2.6556 5.3128-0.0031 1.328-0.0031 1.328-0.84141 1.6643z" fill="#d40000" stroke="#000" stroke-linejoin="round" stroke-width=".05"/>
<path d="m14.572 282.44-1.2998-1.3007 0.63525-2.5454c0.34939-1.4 0.64922-2.5454 0.66629-2.5454 0.01707 0 0.29287 0.532 0.61289 1.1822l0.58185 1.1822 2.7338 2.7646 5.3531-2.677h2.5708l0.83115 0.41527c0.45713 0.22841 0.84303 0.42638 0.85755 0.43993 0.01453 0.0136-0.36609 0.41779-0.8458 0.8983l-0.87219 0.87365h-2.688l-7.8372 2.613z" fill="#d40000" stroke="#000" stroke-linejoin="round" stroke-width=".05"/>
<path d="m31.646 283.05-2.4682-0.62249 2.5696-1.2806 2.658-2.6599-2.6556-5.3128v-2.6338l0.82063-1.7105 1.7481 1.7452v2.6296l2.6272 7.8795-1.2985 1.2995c-0.87184 0.87249-1.337 1.2977-1.4157 1.2941-0.06449-3e-3 -1.2279-0.28549-2.5855-0.62786z" fill="#d40000" stroke="#000" stroke-linejoin="round" stroke-width=".05"/>
<path d="m35.053 266.46-0.62434-1.2404-1.3367-1.333-1.3367-1.333-5.3892 2.6951h-2.4692l-0.84958-0.41034c-0.46726-0.22569-0.86289-0.42365-0.87916-0.43993-0.01627-0.0163 0.3629-0.42272 0.8426-0.90323l0.87219-0.87365h2.6296l7.88-2.6273 2.6152 2.6152-0.63532 2.5456c-0.34942 1.4001-0.64876 2.5455-0.66518 2.5454-0.01643-1.2e-4 -0.31082-0.55837-0.65421-1.2406z" fill="#d40000" stroke="#000" stroke-linejoin="round" stroke-width=".05"/>
<text transform="scale(.93342 1.0713)" x="67.296951" y="144.36642" fill="#000000" font-family="sans-serif" font-size="6.824px" letter-spacing="0px" stroke-width=".1706" word-spacing="0px" style="line-height:1.25" xml:space="preserve"><tspan x="67.296951" y="150.59212" stroke-width=".1706"/></text>
</g>
</svg>
